<svg id="Group_1327" data-name="Group 1327" xmlns="http://www.w3.org/2000/svg" width="51.068" height="51.068" viewBox="0 0 51.068 51.068">
  <path id="Path_3868" data-name="Path 3868" d="M334.9,270.873h0a7.06,7.06,0,0,0-9.984,0h0a7.04,7.04,0,0,0-5.551-2.044,9.166,9.166,0,0,1-.153,5.135l16.246,16.246a7.06,7.06,0,0,0-.558-9.353A7.059,7.059,0,0,0,334.9,270.873Z" transform="translate(-285.899 -239.142)" fill="#aed581"/>
  <path id="Path_3869" data-name="Path 3869" d="M147.507,118.966a10.407,10.407,0,0,1,7.205.482,7.024,7.024,0,0,0-2.007-4.079,7.06,7.06,0,0,0,0-9.984h0a7.06,7.06,0,0,0-9.984,0h0a7.06,7.06,0,0,0-9.353-.558l19.9,19.9h0Z" transform="translate(-133.368 -103.317)" fill="#aed581"/>
</svg>
