<svg xmlns="http://www.w3.org/2000/svg" width="91.775" height="91.775" viewBox="0 0 91.775 91.775">
  <path id="Path_3872" data-name="Path 3872" d="M90.452,84.079l-4.6-4.6a10.478,10.478,0,0,0,.628-3.592,10.6,10.6,0,0,0-9.746-10.553,8.822,8.822,0,0,0-1.543-5.1A8.827,8.827,0,0,0,62.922,47.965a8.806,8.806,0,0,0-4.2-1.51,21.573,21.573,0,0,0-5.345-8.446A22.549,22.549,0,0,0,46.8,33.387,8.692,8.692,0,0,0,45.53,30.57,8.827,8.827,0,0,0,33.258,18.3a8.837,8.837,0,0,0-6.84-1.349c.035-.353.057-.709.057-1.069a10.6,10.6,0,0,0-10.59-10.59,10.483,10.483,0,0,0-3.592.628l-4.6-4.6A4.508,4.508,0,0,0,0,4.51v85.5a1.765,1.765,0,0,0,1.765,1.765h85.5a4.508,4.508,0,0,0,3.187-7.7Zm-7.5-8.189q0,.333-.03.66l-7.2-7.2.011-.022c.085-.163.167-.327.241-.493A7.068,7.068,0,0,1,82.953,75.89ZM61.674,51.5a1.765,1.765,0,0,0,2.5,0,5.295,5.295,0,1,1,7.488,7.488,1.765,1.765,0,0,0,0,2.5,5.3,5.3,0,0,1,1.362,5.15l0,.01L59.2,52.826c.005-.023.009-.047.014-.07.017-.082.034-.164.049-.246v0a10.512,10.512,0,0,0,.153-2.347A5.291,5.291,0,0,1,61.674,51.5ZM55.7,48.865l.011.054c.029.145.053.289.075.432,0,.025.007.051.011.076L41.957,35.583A16.914,16.914,0,0,1,50.881,40.5,17.373,17.373,0,0,1,55.7,48.865ZM32.011,21.835a1.766,1.766,0,0,0,2.5,0A5.295,5.295,0,1,1,42,29.323a1.765,1.765,0,0,0,0,2.5q.114.114.22.234A11.1,11.1,0,0,0,39,32.1l-.023,0q-.187.032-.371.072l-.047.009-11.71-11.71A5.3,5.3,0,0,1,32.011,21.835ZM15.885,8.822a7.068,7.068,0,0,1,7.06,7.06q0,.333-.03.66l-7.69-7.69Q15.552,8.821,15.885,8.822ZM88.168,87.641a.945.945,0,0,1-.9.6H3.53v-3.53H14.12a1.765,1.765,0,0,0,0-3.53H3.53V4.51A.978.978,0,0,1,5.2,3.819l5.442,5.442h0L22.5,21.124h0l.151.151h0L36.8,35.416,55.97,54.59,72.216,70.836l10.3,10.3h0l5.442,5.442A.944.944,0,0,1,88.168,87.641Z"/>
</svg>
