<svg xmlns="http://www.w3.org/2000/svg" width="3.53" height="3.529" viewBox="0 0 3.53 3.529">
  <path id="Path_3876" data-name="Path 3876" d="M101.858,454.014a1.776,1.776,0,0,0-.162-.3,1.674,1.674,0,0,0-.219-.268,1.692,1.692,0,0,0-.268-.219,1.81,1.81,0,0,0-.3-.162,1.7,1.7,0,0,0-.332-.1,1.731,1.731,0,0,0-.688,0,1.7,1.7,0,0,0-.332.1,1.8,1.8,0,0,0-.3.162,1.712,1.712,0,0,0-.487.487,1.789,1.789,0,0,0-.162.3,1.712,1.712,0,0,0-.1.332,1.695,1.695,0,0,0,0,.688,1.653,1.653,0,0,0,.1.33,1.726,1.726,0,0,0,.162.305,1.714,1.714,0,0,0,.487.487,1.752,1.752,0,0,0,.305.162,1.66,1.66,0,0,0,.33.1,1.695,1.695,0,0,0,.688,0,1.714,1.714,0,0,0,.332-.1,1.786,1.786,0,0,0,.3-.162,1.664,1.664,0,0,0,.268-.219,1.778,1.778,0,0,0,.517-1.248,1.738,1.738,0,0,0-.035-.344A1.694,1.694,0,0,0,101.858,454.014Z" transform="translate(-98.464 -452.925)"/>
</svg>
